<?xml version="1.0" encoding="UTF-8" standalone="no"?>
<!-- Created with Inkscape (http://www.inkscape.org/) -->

<svg
   width="98.255516mm"
   height="127.12373mm"
   viewBox="0 0 98.255528 127.12374"
   version="1.1"
   id="svg5"
   xml:space="preserve"
   inkscape:export-filename="logo_and_text.svg"
   inkscape:export-xdpi="300"
   inkscape:export-ydpi="300"
   xmlns:inkscape="http://www.inkscape.org/namespaces/inkscape"
   xmlns:sodipodi="http://sodipodi.sourceforge.net/DTD/sodipodi-0.dtd"
   xmlns="http://www.w3.org/2000/svg"
   xmlns:svg="http://www.w3.org/2000/svg"><sodipodi:namedview
     id="namedview7"
     pagecolor="#ffffff"
     bordercolor="#000000"
     borderopacity="0.25"
     inkscape:showpageshadow="2"
     inkscape:pageopacity="0.0"
     inkscape:pagecheckerboard="0"
     inkscape:deskcolor="#d1d1d1"
     inkscape:document-units="mm"
     showgrid="false" /><defs
     id="defs2"><inkscape:path-effect
       effect="bspline"
       id="path-effect5675"
       is_visible="true"
       lpeversion="1"
       weight="33.333333"
       steps="2"
       helper_size="0"
       apply_no_weight="true"
       apply_with_weight="true"
       only_selected="false" /><inkscape:path-effect
       effect="bspline"
       id="path-effect5598"
       is_visible="true"
       lpeversion="1"
       weight="33.333333"
       steps="2"
       helper_size="0"
       apply_no_weight="true"
       apply_with_weight="true"
       only_selected="false" /><inkscape:path-effect
       effect="bspline"
       id="path-effect3516"
       is_visible="true"
       lpeversion="1"
       weight="33.333333"
       steps="2"
       helper_size="0"
       apply_no_weight="true"
       apply_with_weight="true"
       only_selected="false" /><inkscape:path-effect
       effect="bspline"
       id="path-effect962"
       is_visible="true"
       lpeversion="1"
       weight="33.333333"
       steps="2"
       helper_size="0"
       apply_no_weight="true"
       apply_with_weight="true"
       only_selected="false" /><inkscape:path-effect
       effect="bspline"
       id="path-effect958"
       is_visible="true"
       lpeversion="1"
       weight="33.333333"
       steps="2"
       helper_size="0"
       apply_no_weight="true"
       apply_with_weight="true"
       only_selected="false" /><inkscape:path-effect
       effect="bspline"
       id="path-effect954"
       is_visible="true"
       lpeversion="1"
       weight="33.333333"
       steps="2"
       helper_size="0"
       apply_no_weight="true"
       apply_with_weight="true"
       only_selected="false" /></defs><g
     inkscape:label="Layer 1"
     inkscape:groupmode="layer"
     id="layer1"
     transform="translate(-55.872241,-83.982976)"><path
       sodipodi:type="star"
       style="fill:#ffffff;fill-opacity:1;stroke:#000000;stroke-width:0;stroke-linecap:round;stroke-linejoin:round;stroke-miterlimit:5000;stroke-dasharray:none;stroke-opacity:1;paint-order:stroke fill markers"
       id="path3905"
       inkscape:flatsided="true"
       sodipodi:sides="6"
       sodipodi:cx="20.842104"
       sodipodi:cy="125.05263"
       sodipodi:r1="65.869148"
       sodipodi:r2="57.044357"
       sodipodi:arg1="0.52359878"
       sodipodi:arg2="1.0471976"
       inkscape:rounded="0"
       inkscape:randomized="0"
       d="m 77.88646,157.9872 -57.044356,32.93458 -57.044356,-32.93458 0,-65.869147 57.044356,-32.934574 57.044356,32.934575 z"
       inkscape:transform-center-y="-1.0673102e-05"
       transform="matrix(0.70816913,0,0,0.70816913,90.240264,59.941587)"
       inkscape:transform-center-x="2.1190134e-06" /><path
       sodipodi:type="star"
       style="fill:#000000;fill-opacity:0;stroke:#000000;stroke-width:10;stroke-linecap:round;stroke-linejoin:round;stroke-miterlimit:5000;stroke-dasharray:none;stroke-opacity:1;paint-order:stroke fill markers"
       id="path234-0"
       inkscape:flatsided="true"
       sodipodi:sides="6"
       sodipodi:cx="83.368416"
       sodipodi:cy="141.03157"
       sodipodi:r1="50.954342"
       sodipodi:r2="44.12775"
       sodipodi:arg1="0.52359878"
       sodipodi:arg2="1.0471976"
       inkscape:rounded="0"
       inkscape:randomized="0"
       d="m 127.49617,166.50874 -44.127754,25.47717 -44.127755,-25.47717 0,-50.95434 44.127755,-25.477171 44.127754,25.477171 z"
       inkscape:transform-center-x="1.0503108e-06"
       inkscape:transform-center-y="-1.7767758e-06"
       transform="translate(21.63158,7.4684303)" /><path
       style="fill:#000000;fill-opacity:0;stroke:#000000;stroke-width:10;stroke-dasharray:none;stroke-opacity:1"
       d="m 105,97.545656 c 0,33.969824 0,67.939384 0,101.908684"
       id="path952"
       inkscape:path-effect="#path-effect954"
       inkscape:original-d="m 105,97.545656 c 2.6e-4,33.969824 2.6e-4,67.939384 0,101.908684" /><path
       style="fill:#000000;fill-opacity:0;stroke:#000000;stroke-width:10;stroke-dasharray:none;stroke-opacity:1"
       d="M 60.872245,123.02283 C 75.581807,131.5154 90.291058,140.00779 105,148.5"
       id="path956"
       inkscape:path-effect="#path-effect958"
       inkscape:original-d="M 60.872245,123.02283 C 75.58176,131.51548 90.291011,140.00787 105,148.5" /><path
       style="fill:#000000;fill-opacity:0;stroke:#000000;stroke-width:10;stroke-dasharray:none;stroke-opacity:1"
       d="M 149.12775,123.02283 C 134.41859,131.51517 119.70934,140.00756 105,148.5"
       id="path960"
       inkscape:path-effect="#path-effect962"
       inkscape:original-d="M 149.12775,123.02283 C 134.41877,131.51548 119.70952,140.00787 105,148.5" /><path
       style="fill:#2e8b57;fill-opacity:1;stroke:#000000;stroke-width:0;stroke-linecap:round;stroke-linejoin:round;stroke-miterlimit:5000;stroke-dasharray:none;stroke-opacity:1;paint-order:stroke fill markers"
       d="m 69.902017,173.30738 c 0.517728,0.13031 1.552887,0.39084 3.002086,0.55001 1.4492,0.15918 3.312453,0.21707 5.160913,0.0868 1.84846,-0.13029 3.682106,-0.4487 5.45663,-0.94082 1.774524,-0.49212 3.489878,-1.15789 5.116526,-1.99738 1.626648,-0.83948 3.164539,-1.85261 4.554585,-2.93813 1.390046,-1.08552 2.632201,-2.24339 3.770873,-3.3434 1.138673,-1.10001 2.173803,-2.1421 3.19418,-3.15527 1.02038,-1.01318 2.02593,-1.99735 2.69147,-2.54738 0.66554,-0.55003 0.99084,-0.66581 1.44932,-0.75264 0.45847,-0.0868 1.04997,-0.14472 1.65633,-0.0144 0.60635,0.13037 1.22743,0.44878 1.6414,0.8107 0.41398,0.36192 0.62101,0.76717 1.22738,1.41847 0.60637,0.65129 1.61192,1.54864 2.82454,2.67761 1.21261,1.12897 2.63222,2.48947 3.93357,3.64736 1.30135,1.15788 2.48436,2.11313 3.57868,2.83678 1.09432,0.72365 2.09988,1.21575 3.29771,1.76574 1.19783,0.55 2.58786,1.15788 4.00751,1.60653 1.41965,0.44865 2.86882,0.73812 4.79123,0.85387 1.92241,0.11576 4.31801,0.0579 5.78199,-0.0145 1.46398,-0.0724 1.99633,-0.15922 2.08495,-0.0289 0.0886,0.13029 -0.26628,0.47764 -3.6971,2.79345 -3.43081,2.31581 -9.93735,6.59994 -13.33858,8.87233 -3.40123,2.27238 -3.69697,2.53289 -4.27371,3.03948 -0.57673,0.50659 -1.4344,1.2592 -2.14426,2.20007 -0.70986,0.94086 -1.27179,2.06978 -1.71543,3.32905 -0.44364,1.25927 -0.76896,2.64871 -0.91682,4.12508 -0.14786,1.47637 -0.11829,3.03951 -0.20704,4.41449 -0.0888,1.37498 -0.29578,2.5618 -0.72463,3.63278 -0.42886,1.07099 -1.07952,2.02624 -1.90758,2.79329 -0.82806,0.76705 -1.83363,1.34599 -2.86871,1.69337 -1.03508,0.34738 -2.09978,0.46317 -3.14969,0.33298 -1.04991,-0.1302 -2.08504,-0.50651 -3.06106,-1.09987 -0.97603,-0.59336 -1.892867,-1.40388 -2.573202,-2.44596 -0.680336,-1.04208 -1.123968,-2.31574 -1.360623,-3.64736 -0.236654,-1.33162 -0.266213,-2.72105 -0.310564,-4.09607 -0.04435,-1.37501 -0.103496,-2.73551 -0.384422,-4.15392 -0.280926,-1.41842 -0.783708,-2.89471 -1.715268,-4.2408 -0.93156,-1.3461 -2.292015,-2.56187 -3.534195,-3.57505 -1.24218,-1.01318 -2.366038,-1.82369 -5.989114,-4.22636 -3.623075,-2.40268 -9.745119,-6.39734 -12.806359,-8.39482 -3.061241,-1.99747 -3.061244,-1.99747 -2.543516,-1.86717 z"
       id="path3514"
       inkscape:path-effect="#path-effect3516"
       inkscape:original-d="m 69.384289,173.17708 c 1.035407,0.2608 2.070568,0.52132 3.105434,0.78158 1.863571,0.0582 3.726825,0.11606 5.589803,0.17369 1.834003,-0.31816 3.667648,-0.63658 5.501089,-0.95527 1.715679,-0.66553 3.431031,-1.33131 5.146169,-1.99736 1.538239,-1.01292 3.076131,-2.02605 4.613799,-3.03948 1.242476,-1.15765 2.484625,-2.31552 3.726559,-3.47368 1.035428,-1.04186 2.070562,-2.08395 3.105428,-3.12632 1.0059,-0.98396 2.01143,-1.96815 3.01675,-2.95263 0.32561,-0.11553 0.65092,-0.23131 0.97598,-0.34737 0.5918,-0.0576 1.1833,-0.11552 1.77455,-0.17368 0.62138,0.31869 1.24246,0.6371 1.86326,0.95526 0.20731,0.40554 0.41433,0.81079 0.6211,1.21579 1.00586,0.89765 2.01141,1.795 3.01671,2.69211 1.41994,1.36082 2.83956,2.72131 4.25891,4.08158 1.18332,0.95554 2.36632,1.91079 3.54909,2.86579 1.00585,0.49237 2.01141,0.98447 3.0167,1.47631 1.39037,0.60817 2.78039,1.21606 4.17019,1.82368 1.44952,0.28975 2.89869,0.57922 4.34763,0.86843 2.39593,-0.0576 4.79153,-0.11553 7.1869,-0.17369 0.53263,-0.0866 1.06498,-0.17342 1.59709,-0.26052 -0.35467,0.34764 -0.70955,0.695 -1.06474,1.0421 -6.50651,4.28456 -13.01305,8.56869 -19.51996,12.85263 -0.2955,0.2608 -0.59124,0.52132 -0.88727,0.78158 -0.85745,0.75291 -1.71511,1.50553 -2.57308,2.2579 -0.56168,1.12923 -1.12361,2.25815 -1.68583,3.38684 -0.32507,1.38976 -0.65038,2.77921 -0.97599,4.16842 0.0298,1.56345 0.0595,3.12658 0.0887,4.68947 -0.20676,1.18713 -0.4138,2.37395 -0.62108,3.56053 -0.65041,0.95555 -1.30108,1.91079 -1.952,2.86579 -1.00532,0.57922 -2.01088,1.15816 -3.01674,1.73684 -1.06446,0.11606 -2.12916,0.23184 -3.19417,0.34737 -1.03489,-0.37606 -2.07002,-0.75237 -3.10543,-1.12895 -0.9166,-0.81028 -1.833442,-1.62079 -2.750559,-2.43158 -0.44339,-1.27344 -0.887014,-2.5471 -1.330925,-3.82105 -0.02932,-1.38924 -0.05885,-2.77868 -0.08868,-4.16842 -0.05885,-1.36029 -0.118028,-2.72079 -0.17744,-4.08158 -0.502536,-1.47608 -1.005317,-2.95237 -1.508375,-4.42895 -1.360227,-1.21555 -2.72069,-2.43131 -4.081439,-3.64737 -1.123631,-0.81027 -2.247487,-1.62078 -3.371639,-2.43157 -6.122,-3.99456 -12.244051,-7.98921 -18.366491,-11.98422 z" /><path
       style="fill:#e26a28;fill-opacity:1;stroke:#000000;stroke-width:0;stroke-linecap:round;stroke-linejoin:round;stroke-miterlimit:5000;stroke-dasharray:none;stroke-opacity:1;paint-order:stroke fill markers"
       d="m 137.57762,173.82805 c 0.32692,-0.0198 0.6536,-0.0396 0.96113,-0.0628 0.30753,-0.0232 0.59591,-0.0498 0.79887,-0.0795 0.20296,-0.0296 0.32057,-0.0622 0.37376,-0.0748 0.0532,-0.0126 0.0426,-0.006 0.0199,0.009 -0.0226,0.0145 -0.057,0.0362 -0.28595,0.19684 -0.22894,0.16067 -0.65244,0.4603 -1.076,0.75997"
       id="path5596"
       inkscape:path-effect="#path-effect5598"
       inkscape:original-d="m 137.57762,173.82805 c 0.32694,-0.0195 0.65362,-0.0393 0.98003,-0.0594 0.28866,-0.0263 0.57704,-0.053 0.86516,-0.0799 0.11786,-0.0323 0.23546,-0.0649 0.3528,-0.0977 -0.0106,0.008 -0.0215,0.0147 -0.0326,0.0217 -0.0341,0.022 -0.0685,0.0437 -0.10313,0.0651 -0.42325,0.29991 -0.84675,0.59954 -1.27052,0.89891" /><path
       style="fill:#e26a28;fill-opacity:1;stroke:#000000;stroke-width:0;stroke-linecap:round;stroke-linejoin:round;stroke-miterlimit:5000;stroke-dasharray:none;stroke-opacity:1;paint-order:stroke fill markers"
       d="m 139.57411,173.72677 c 0.071,-0.0436 0.14203,-0.0872 0.17975,-0.1103 0.0377,-0.0231 0.042,-0.0257 0.0295,-0.0232 -0.0125,0.002 -0.0422,0.0102 -0.0721,0.018"
       id="path5673"
       inkscape:path-effect="#path-effect5675"
       inkscape:original-d="m 139.57411,173.72677 c 0.0712,-0.0433 0.1422,-0.0869 0.2129,-0.13069 0.005,-0.002 0.009,-0.005 0.0134,-0.008 -0.0294,0.008 -0.0591,0.0157 -0.0891,0.0232" /><text
       xml:space="preserve"
       style="font-style:italic;font-size:19.4028px;font-family:Arial;-inkscape-font-specification:'Arial Italic';fill:#e26a28;fill-opacity:1;stroke:#000000;stroke-width:0;stroke-linecap:round;stroke-linejoin:round;stroke-miterlimit:5000;stroke-dasharray:none;stroke-opacity:1;paint-order:stroke fill markers"
       x="135.72945"
       y="25.417866"
       id="text5825"
       transform="rotate(30)"><tspan
         sodipodi:role="line"
         id="tspan5823"
         style="font-style:normal;font-variant:normal;font-weight:bold;font-stretch:normal;font-size:19.4028px;font-family:Arial;-inkscape-font-specification:'Arial Bold';fill:#000000;fill-opacity:1;stroke-width:0"
         x="135.72945"
         y="25.417866">.com</tspan></text><text
       xml:space="preserve"
       style="font-style:italic;font-size:15.875px;font-family:Arial;-inkscape-font-specification:'Arial Italic';fill:#e26a28;fill-opacity:1;stroke:#000000;stroke-width:0;stroke-linecap:round;stroke-linejoin:round;stroke-miterlimit:5000;stroke-dasharray:none;stroke-opacity:1;paint-order:stroke fill markers"
       x="-5.8529358"
       y="131.24681"
       id="text5829"
       transform="rotate(-30)"><tspan
         sodipodi:role="line"
         id="tspan5827"
         style="font-style:normal;font-variant:normal;font-weight:bold;font-stretch:normal;font-size:15.875px;font-family:Arial;-inkscape-font-specification:'Arial Bold';fill:#000000;fill-opacity:1;stroke-width:0"
         x="-5.8529358"
         y="131.24681">moltsa</tspan></text></g></svg>
